<?xml version="1.0" encoding="UTF-8" standalone="no"?>
<svg
   width="3.0009069in"
   height="1.648in"
   viewBox="0 0 288.08707 158.208"
   version="1.1"
   id="svg54"
   sodipodi:docname="openaq-logo.svg"
   inkscape:version="1.1.1 (c3084ef, 2021-09-22)"
   xmlns:inkscape="http://www.inkscape.org/namespaces/inkscape"
   xmlns:sodipodi="http://sodipodi.sourceforge.net/DTD/sodipodi-0.dtd"
   xmlns="http://www.w3.org/2000/svg"
   xmlns:svg="http://www.w3.org/2000/svg">
  <defs
     id="defs58" />
  <sodipodi:namedview
     id="namedview56"
     pagecolor="#ffffff"
     bordercolor="#666666"
     borderopacity="1.0"
     inkscape:pageshadow="2"
     inkscape:pageopacity="0.0"
     inkscape:pagecheckerboard="0"
     showgrid="false"
     units="in"
     fit-margin-top="0"
     fit-margin-left="0"
     fit-margin-right="0"
     fit-margin-bottom="0"
     inkscape:zoom="2.4969565"
     inkscape:cx="64.278253"
     inkscape:cy="65.479716"
     inkscape:window-width="1792"
     inkscape:window-height="995"
     inkscape:window-x="0"
     inkscape:window-y="25"
     inkscape:window-maximized="1"
     inkscape:current-layer="svg54"
     inkscape:document-units="in" />
  <path
     fill="#343638"
     d="m 35.358685,138.22596 c -3.997208,3.84116 -8.918695,5.84177 -14.76046,5.84177 -5.841766,0 -10.7592517,-2.00061 -14.7564596,-5.84177 C 1.8445574,134.3808 0,129.46331 0,123.92964 c 0,-5.68972 1.9966034,-10.45516 5.8417654,-14.29632 3.9972079,-3.84516 8.9146936,-5.84176 14.7564596,-5.84176 5.841765,0 10.763252,1.9966 14.76046,5.84176 3.997208,3.84116 5.841766,8.76265 5.841766,14.29632 0.152046,5.68572 -1.844558,10.45116 -5.841766,14.29632 z m -23.675154,-5.07353 c 2.304696,2.46074 5.225579,3.53707 8.914694,3.53707 3.537069,0 6.609997,-1.23238 8.918695,-3.53707 2.304696,-2.46075 3.533068,-5.53367 3.533068,-9.22279 0,-3.84516 -1.228372,-6.91809 -3.533068,-9.22679 -2.308698,-2.45674 -5.22958,-3.53306 -8.918695,-3.53306 -3.533068,0 -6.609998,1.22837 -8.914694,3.53306 -2.3046967,2.46075 -3.5370692,5.53768 -3.5370692,9.22679 0.1560472,3.84116 1.2323725,6.91809 3.5370692,9.22279 z m 61.490582,-29.36087 c 5.225579,0 9.838973,1.84455 13.528088,5.53367 3.689115,3.68911 5.533672,8.45455 5.533672,14.60441 0,5.99381 -1.844557,10.9153 -5.533672,14.75646 -3.689115,3.84516 -7.994416,5.68972 -12.911902,5.68972 -4.921487,0 -9.378834,-2.15265 -13.376042,-6.45795 V 158.208 h -8.298508 v -53.95631 h 8.298508 v 6.9181 c 3.228976,-4.92149 7.534277,-7.37823 12.759856,-7.37823 z m -12.911902,20.29013 c 0,3.68911 1.076325,6.76604 3.381022,9.22278 2.304696,2.46075 5.073533,3.53707 8.302509,3.53707 a 11.723543,11.723543 0 0 0 8.454555,-3.53707 c 2.460743,-2.30469 3.689115,-5.37762 3.689115,-9.22278 0,-3.84116 -1.228372,-6.91809 -3.537069,-9.37884 a 11.311418,11.311418 0 0 0 -8.454555,-3.68911 c -3.228976,0 -6.149859,1.23237 -8.298508,3.68911 -2.460744,2.46075 -3.537069,5.53768 -3.537069,9.37884 z m 80.860439,3.53707 h -30.74529 c 0.15204,2.92088 1.53646,5.22558 3.84116,6.91809 a 14.06425,14.06425 0 0 0 8.30251,2.61279 c 4.92148,0 8.6106,-1.53647 11.22339,-4.6134 l 4.76544,5.22958 c -4.3053,4.3013 -9.68693,6.61 -16.60502,6.61 -5.53367,0 -10.14307,-1.84456 -13.98823,-5.53767 -3.84116,-3.68912 -5.84176,-8.6066 -5.84176,-14.75646 0,-6.14986 2.0006,-11.06735 5.84176,-14.75646 3.99721,-3.68912 8.6106,-5.53367 13.83618,-5.53367 5.22558,0 9.83898,1.53646 13.68014,4.76544 3.69311,3.22497 5.53767,7.68632 5.53767,13.37204 v 5.68972 z m -30.74529,-6.61 h 22.44278 c 0,-3.22898 -1.07633,-5.84177 -3.07293,-7.53428 -2.00061,-1.84456 -4.61339,-2.61279 -7.68632,-2.61279 -3.07693,0 -5.68972,0.92028 -8.14647,2.76484 -2.30869,1.84856 -3.53706,4.3053 -3.53706,7.38223 z m 51.80765,1.38042 v 21.21441 h -8.30251 v -39.3519 h 8.30251 v 7.22619 a 15.092561,15.092561 0 0 1 5.53367,-5.68972 14.540394,14.540394 0 0 1 7.53028,-1.9966 c 4.46135,0 7.99442,1.38041 10.76325,3.9972 2.76484,2.76484 4.14926,6.61 4.14926,11.67953 v 23.98325 h -8.30251 v -21.5225 c 0,-7.22619 -3.07293,-10.9153 -9.06674,-10.9153 -2.92089,0 -5.38163,0.92428 -7.38223,2.76883 -2.14865,2.15266 -3.22498,4.91749 -3.22498,8.60661 z"
     id="path48"
     style="stroke-width:4.00121" />
  <path
     fill="#198cff"
     d="m 236.43545,143.60359 h -7.53428 v -5.22558 c -3.22897,3.84516 -7.53027,5.84176 -13.06795,5.84176 -4.14925,0 -7.53027,-1.22837 -10.14306,-3.53306 -2.61679,-2.3087 -3.99721,-5.38163 -3.99721,-9.22679 0,-3.84116 1.38042,-6.76205 4.3013,-8.6066 2.92088,-1.84456 6.76605,-2.92089 11.53149,-2.92089 h 10.75925 v -1.53646 c 0,-5.22958 -2.92089,-7.84237 -8.76265,-7.84237 -3.68912,0 -7.37823,1.38442 -11.37544,3.99721 l -3.68911,-5.22558 c 4.76544,-3.84516 10.14706,-5.68972 16.29692,-5.68972 4.60939,0 8.45456,1.23237 11.37544,3.53707 2.92088,2.30469 4.45735,5.99381 4.45735,11.06734 v 25.36367 z m -8.30251,-14.60042 v -3.38502 h -9.22279 c -5.99781,0 -8.91869,1.84456 -8.91869,5.53367 0,1.84456 0.76823,3.38503 2.15265,4.46135 1.53646,1.07633 3.53707,1.53647 6.14986,1.53647 2.61279,0 4.92149,-0.76824 6.91809,-2.15265 1.84456,-1.53647 2.92088,-3.53707 2.92088,-5.99382 z m 38.27957,15.2166 c -4.92149,0 -9.22679,-1.84455 -12.9159,-5.68572 -3.68912,-3.84516 -5.53368,-8.76264 -5.53368,-14.76046 0,-5.99381 1.84456,-10.91529 5.53368,-14.60441 3.68911,-3.68911 8.3025,-5.53367 13.52808,-5.53367 5.22958,0 9.53088,2.46074 12.75986,7.37823 v -6.91809 h 8.30251 v 53.50016 h -8.30251 v -20.29413 c -3.99721,4.76544 -8.45455,6.91809 -13.37204,6.91809 z M 256.1134,124.08169 c 0,3.68911 1.22837,6.76604 3.68911,9.22278 2.45674,2.3087 5.22558,3.53707 8.45456,3.53707 3.22897,0 5.99381,-1.22837 8.2985,-3.53707 2.3087,-2.45674 3.38503,-5.37762 3.38503,-9.22278 0,-3.68912 -1.07633,-6.91809 -3.38503,-9.37884 -2.30469,-2.45674 -5.06953,-3.68911 -8.2985,-3.68911 -3.22898,0 -6.14986,1.23237 -8.45456,3.68911 -2.46074,2.46075 -3.68911,5.53768 -3.68911,9.37884 z M 52.267795,51.367715 V 43.83744 c 9.838973,0 39.816032,0.152045 51.959705,0.152045 26.43999,0 52.88398,-0.152045 79.32397,-0.152045 9.68693,0 17.83339,-5.997814 20.29413,-15.220601 1.53647,-5.689719 0.76823,-11.067345 -3.22897,-15.680739 -3.53707,-3.9972079 -7.84237,-5.6857182 -13.06795,-5.3816263 -5.07354,0.4641403 -9.68293,4.9214873 -10.45516,9.9950203 -0.46014,3.997208 0.77223,7.070137 4.15325,9.222788 2.45674,1.536464 5.22558,1.692511 7.99442,0.460139 0.92028,-0.460139 1.68851,-1.076326 2.30469,-1.996604 1.07633,-1.844557 3.22898,-2.460743 4.91749,-1.384418 1.84456,0.920278 2.46074,3.072928 1.54047,5.073533 -1.38442,2.764836 -3.68912,4.457347 -6.45796,5.533672 -9.53088,3.689115 -20.29413,-2.460743 -21.83059,-12.60781 -1.07633,-7.378229 2.61279,-15.2165984 9.22278,-19.0617603 5.38163,-3.22897569 11.2234,-3.53306758 16.91312,-1.5364643 8.45455,2.9208826 13.83618,8.9186956 15.68073,17.6773426 1.22838,6.305905 0,12.299717 -3.07693,17.833389 -4.45734,7.994417 -11.37543,12.607811 -20.44617,14.144275 -1.53647,0.308093 -3.07293,0.308093 -4.6094,0.308093 -15.68074,0.152046 -113.14619,0.152046 -131.131625,0.152046 z"
     id="path50"
     style="stroke-width:4.00121" />
  <path
     fill="#198cff"
     d="M 114.37456,36.687278 H 74.790601 v -6.301905 h 68.636739 c 4.98151,0 8.12646,-2.220671 9.33482,-6.662013 0.70022,-2.784841 -0.20006,-6.854071 -2.06062,-9.114754 -1.46444,-1.704515 -4.35331,-2.668807 -7.21018,-2.520762 -2.16865,0.120036 -4.35731,2.268686 -4.60939,4.549375 -0.24407,1.708516 0.3281,2.964896 1.72452,3.901179 1.11234,0.616186 2.26869,0.708214 3.38102,0.220066 1.29639,-0.43213 2.62079,-0.43213 3.68512,0.636192 1.74052,1.960593 0.69221,4.585386 -1.68051,5.533673 -5.9378,2.268685 -12.67583,-1.58848 -13.54009,-7.822364 -0.68421,-4.429339 1.6525,-9.2027815 5.6337,-11.623513 3.05692,-1.7725357 8.08644,-1.9685949 11.85558,-0.7122153 4.70542,1.568474 8.10245,6.1418563 9.37083,11.7515513 0.79624,3.509061 0.12004,7.150161 -1.81655,10.667224 -2.50075,4.377323 -5.79775,6.429943 -11.37943,7.474259 -0.74423,0.152045 -1.37642,0.176053 -2.84086,0.176053 h -25.82781 l -0.18805,-0.012 c -0.68421,-0.116035 -1.34041,-0.140042 -2.88488,-0.140042 z M 227.62879,67.76467 c 2.3047,4.613394 2.17666,9.158768 -0.70021,13.316024 -2.67681,3.845162 -6.43395,5.597692 -11.17938,5.257589 -4.64941,-0.344104 -8.50257,-4.093237 -9.17878,-8.710632 a 5.5656819,5.5656819 0 0 1 -0.16805,-1.044316 c -0.02,-0.260078 -0.02,-0.456138 -0.02,-0.924279 l 0.008,-0.16405 a 3.3130012,3.3130012 0 0 1 3.297,-2.836857 c 1.6525,0 3.05692,1.196362 3.28099,2.772838 0.048,0.248075 0.076,0.432131 0.13204,0.844255 a 4.801451,4.801451 0 0 0 0.26808,1.260381 c 0.68821,1.712518 2.52876,2.568776 4.51736,2.072626 2.80085,-0.640193 4.59339,-3.17696 4.33331,-6.165863 -0.27208,-3.385023 -2.86486,-6.293902 -6.35792,-6.966105 a 4.0092116,4.0092116 0 0 0 -0.78423,-0.10003 13.844184,13.844184 0 0 0 -0.93229,-0.02001 c -8.39053,0 -19.89001,0.02001 -49.34691,0.07602 -29.4569,0.06002 -40.95638,0.08002 -49.34691,0.08002 h -1.15235 v -7.074138 h 100.30631 c 5.78175,0 10.2591,2.972898 13.02394,8.326516 z"
     id="path52"
     style="stroke-width:4.00121" />
</svg>
